<svg width="374" height="253" viewBox="0 0 374 253" fill="none" xmlns="http://www.w3.org/2000/svg">
<g clip-path="url(#clip0_224_364)">
<path d="M194.067 70.0385C188.113 72.1937 183.259 76.6259 180.573 82.36C177.887 88.094 177.588 94.6603 179.743 100.614L217.937 206.127C221.077 214.801 230.666 219.293 239.34 216.153L306.688 191.774C310.856 190.266 314.254 187.163 316.134 183.149C318.015 179.135 318.223 174.539 316.715 170.371L312.652 159.146L317.141 157.521C323.095 155.366 327.949 150.934 330.636 145.2C333.322 139.466 333.62 132.899 331.465 126.945L315.212 82.0464C313.057 76.0925 308.625 71.2385 302.891 68.5524C297.157 65.8663 290.59 65.568 284.636 67.7232L280.146 69.3485L278.521 64.8586C276.366 58.9046 271.934 54.0507 266.2 51.3646C260.466 48.6784 253.899 48.3802 247.945 50.5354L194.067 70.0385ZM283.397 78.3283L287.887 76.703C291.459 75.4099 295.399 75.5889 298.839 77.2005C302.28 78.8122 304.939 81.7246 306.232 85.2969L322.485 130.196C323.778 133.768 323.599 137.708 321.987 141.148C320.376 144.589 317.463 147.248 313.891 148.541L309.401 150.167L283.397 78.3283ZM188.723 97.3638C187.43 93.7914 187.609 89.8516 189.221 86.4112C190.832 82.9707 193.745 80.3114 197.317 79.0183L251.196 59.5152C254.768 58.2221 258.708 58.401 262.149 60.0127C265.589 61.6244 268.248 64.5367 269.541 68.1091L271.167 72.599L190.349 101.854L188.723 97.3638ZM267.449 104.414L286.952 158.293C287.383 159.484 287.323 160.797 286.786 161.944C286.249 163.091 285.278 163.977 284.087 164.408C282.896 164.839 281.583 164.779 280.436 164.242C279.289 163.705 278.403 162.734 277.972 161.543L258.469 107.665C258.038 106.474 258.097 105.161 258.635 104.014C259.172 102.867 260.143 101.981 261.333 101.55C262.524 101.118 263.837 101.178 264.984 101.715C266.131 102.253 267.017 103.223 267.449 104.414ZM238.884 109.676C240.075 109.245 241.388 109.304 242.535 109.842C243.682 110.379 244.568 111.35 244.999 112.54L264.502 166.419C264.933 167.61 264.874 168.923 264.336 170.07C263.799 171.217 262.828 172.103 261.637 172.534C260.447 172.965 259.133 172.906 257.987 172.369C256.84 171.831 255.953 170.861 255.522 169.67L236.019 115.791C235.588 114.6 235.648 113.287 236.185 112.14C236.722 110.993 237.693 110.107 238.884 109.676ZM222.55 120.667L242.053 174.545C242.484 175.736 242.424 177.05 241.887 178.196C241.35 179.343 240.379 180.23 239.188 180.661C237.997 181.092 236.684 181.032 235.537 180.495C234.39 179.958 233.504 178.987 233.073 177.796L213.57 123.917C213.139 122.726 213.198 121.413 213.736 120.266C214.273 119.12 215.244 118.233 216.434 117.802C217.625 117.371 218.938 117.431 220.085 117.968C221.232 118.505 222.119 119.476 222.55 120.667Z" fill="#F8C630"/>
</g>
<g clip-path="url(#clip1_224_364)">
<path d="M179.736 61.8415C185.69 63.9967 190.544 68.4289 193.23 74.1629C195.916 79.897 196.214 86.4633 194.059 92.4173L155.866 197.93C152.726 206.604 143.137 211.096 134.463 207.956L67.1142 183.577C62.9465 182.069 59.5487 178.966 57.6684 174.952C55.7881 170.938 55.5793 166.342 57.088 162.174L61.1511 150.949L56.6612 149.324C50.7073 147.169 45.8533 142.737 43.1672 137.003C40.4811 131.269 40.1828 124.702 42.3381 118.748L58.5906 73.8494C60.7459 67.8954 65.178 63.0415 70.9121 60.3554C76.6462 57.6693 83.2124 57.371 89.1664 59.5262L93.6563 61.1515L95.2816 56.6616C97.4368 50.7076 101.869 45.8537 107.603 43.1675C113.337 40.4814 119.903 40.1832 125.857 42.3384L179.736 61.8415ZM90.4058 70.1313L85.9159 68.506C82.3435 67.2129 78.4037 67.3918 74.9633 69.0035C71.5229 70.6152 68.8636 73.5275 67.5704 77.0999L51.3179 121.999C50.0247 125.571 50.2037 129.511 51.8153 132.951C53.427 136.392 56.3394 139.051 59.9118 140.344L64.4017 141.97L90.4058 70.1313ZM185.079 89.1667C186.373 85.5944 186.194 81.6546 184.582 78.2141C182.97 74.7737 180.058 72.1144 176.486 70.8213L122.607 51.3182C119.034 50.0251 115.095 50.204 111.654 51.8157C108.214 53.4273 105.554 56.3397 104.261 59.9121L102.636 64.402L183.454 93.6566L185.079 89.1667ZM106.354 96.2171L86.8511 150.096C86.4201 151.287 86.4797 152.6 87.017 153.747C87.5542 154.894 88.525 155.78 89.7158 156.211C90.9066 156.642 92.2198 156.582 93.3666 156.045C94.5135 155.508 95.3999 154.537 95.8309 153.346L115.334 99.4677C115.765 98.2769 115.705 96.9636 115.168 95.8168C114.631 94.67 113.66 93.7835 112.469 93.3525C111.279 92.9215 109.965 92.9811 108.819 93.5183C107.672 94.0556 106.785 95.0263 106.354 96.2171ZM134.919 101.479C133.728 101.048 132.415 101.107 131.268 101.645C130.121 102.182 129.235 103.153 128.804 104.343L109.301 158.222C108.87 159.413 108.929 160.726 109.466 161.873C110.004 163.02 110.974 163.906 112.165 164.337C113.356 164.768 114.669 164.709 115.816 164.172C116.963 163.634 117.849 162.663 118.28 161.473L137.784 107.594C138.215 106.403 138.155 105.09 137.618 103.943C137.08 102.796 136.11 101.91 134.919 101.479ZM151.253 112.47L131.75 166.348C131.319 167.539 131.379 168.853 131.916 169.999C132.453 171.146 133.424 172.033 134.615 172.464C135.806 172.895 137.119 172.835 138.266 172.298C139.412 171.761 140.299 170.79 140.73 169.599L160.233 115.72C160.664 114.529 160.604 113.216 160.067 112.069C159.53 110.923 158.559 110.036 157.368 109.605C156.178 109.174 154.864 109.234 153.717 109.771C152.571 110.308 151.684 111.279 151.253 112.47Z" fill="#F8C630"/>
</g>
<defs>
<clipPath id="clip0_224_364">
<rect width="191" height="191" fill="white" transform="translate(129.197 73.2073) rotate(-19.8993)"/>
</clipPath>
<clipPath id="clip1_224_364">
<rect width="191" height="191" fill="white" transform="matrix(-0.940292 -0.340368 -0.340368 0.940292 244.605 65.0103)"/>
</clipPath>
</defs>
</svg>
